<svg xmlns="http://www.w3.org/2000/svg" xmlns:xlink="http://www.w3.org/1999/xlink" contentStyleType="text/css" data-diagram-type="SEQUENCE" height="1165px" preserveAspectRatio="none" style="width:1510px;height:1165px;background:#FFFFFF;" version="1.1" viewBox="0 0 1510 1165" width="1510px" zoomAndPan="magnify"><?plantuml 1.2026.6?><defs/><g><g class="title" data-source-line="1"><text fill="#000000" font-family="sans-serif" font-size="14" font-weight="700" lengthAdjust="spacing" textLength="363.0088" x="570.209" y="28.5352">AI Test-Suite &#8212; Agent Workflow (Board Overview)</text></g><g><title>Playwright</title><rect fill="#FFFFFF" height="29.3105" style="stroke:#181818;stroke-width:1;" width="10" x="1444.71" y="284.0176"/></g><g><title>Playwright</title><rect fill="#FFFFFF" height="29.3105" style="stroke:#181818;stroke-width:1;" width="10" x="1444.71" y="661.7441"/></g><g class="participant-lifeline" data-entity-uid="part1" data-qualified-name="User" data-source-line="13" id="part1-lifeline"><g><title>User</title><rect fill="#000000" fill-opacity="0.00000" height="958.627" width="8" x="32.1826" y="121.4648"/><line style="stroke:#181818;stroke-width:0.5;stroke-dasharray:5,5;" x1="36" x2="36" y1="121.4648" y2="1080.0918"/></g></g><g class="participant-lifeline" data-entity-uid="part2" data-qualified-name="A1" data-source-line="15" id="part2-lifeline"><g><title>Discoverer</title><rect fill="#000000" fill-opacity="0.00000" height="958.627" width="8" x="225.4937" y="121.4648"/><line style="stroke:#181818;stroke-width:0.5;stroke-dasharray:5,5;" x1="228.6221" x2="228.6221" y1="121.4648" y2="1080.0918"/></g></g><g class="participant-lifeline" data-entity-uid="part3" data-qualified-name="A2" data-source-line="16" id="part3-lifeline"><g><title>Designer</title><rect fill="#000000" fill-opacity="0.00000" height="958.627" width="8" x="435.979" y="121.4648"/><line style="stroke:#181818;stroke-width:0.5;stroke-dasharray:5,5;" x1="439.771" x2="439.771" y1="121.4648" y2="1080.0918"/></g></g><g class="participant-lifeline" data-entity-uid="part4" data-qualified-name="A3" data-source-line="17" id="part4-lifeline"><g><title>Tester</title><rect fill="#000000" fill-opacity="0.00000" height="958.627" width="8" x="769.7676" y="121.4648"/><line style="stroke:#181818;stroke-width:0.5;stroke-dasharray:5,5;" x1="773.4907" x2="773.4907" y1="121.4648" y2="1080.0918"/></g></g><g class="participant-lifeline" data-entity-uid="part5" data-qualified-name="A4" data-source-line="18" id="part5-lifeline"><g><title>Reporter</title><rect fill="#000000" fill-opacity="0.00000" height="958.627" width="8" x="1022.0459" y="121.4648"/><line style="stroke:#181818;stroke-width:0.5;stroke-dasharray:5,5;" x1="1025.7676" x2="1025.7676" y1="121.4648" y2="1080.0918"/></g></g><g class="participant-lifeline" data-entity-uid="part6" data-qualified-name="DB" data-source-line="20" id="part6-lifeline"><g><title>Knowledge DB</title><rect fill="#000000" fill-opacity="0.00000" height="958.627" width="8" x="1291.2788" y="121.4648"/><line style="stroke:#181818;stroke-width:0.5;stroke-dasharray:5,5;" x1="1294.5645" x2="1294.5645" y1="121.4648" y2="1080.0918"/></g></g><g class="participant-lifeline" data-entity-uid="part7" data-qualified-name="PW" data-source-line="21" id="part7-lifeline"><g><title>Playwright</title><rect fill="#000000" fill-opacity="0.00000" height="958.627" width="8" x="1445.71" y="121.4648"/><line style="stroke:#181818;stroke-width:0.5;stroke-dasharray:5,5;" x1="1448.9932" x2="1448.9932" y1="121.4648" y2="1080.0918"/></g></g><g class="participant participant-head" data-entity-uid="part1" data-qualified-name="User" data-source-line="13" id="part1-head"><text fill="#000000" font-family="sans-serif" font-size="14" lengthAdjust="spacing" textLength="30.3652" x="18" y="118.5117">User</text><ellipse cx="36.1826" cy="53.4766" fill="#E2E2F0" rx="8" ry="8" style="stroke:#181818;stroke-width:0.5;"/><path d="M36.1826,61.4766 L36.1826,88.4766 M23.1826,69.4766 L49.1826,69.4766 M36.1826,88.4766 L23.1826,103.4766 M36.1826,88.4766 L49.1826,103.4766" fill="none" style="stroke:#181818;stroke-width:0.5;"/></g><g class="participant participant-tail" data-entity-uid="part1" data-qualified-name="User" data-source-line="13" id="part1-tail"><text fill="#000000" font-family="sans-serif" font-size="14" lengthAdjust="spacing" textLength="30.3652" x="18" y="1092.627">User</text><ellipse cx="36.1826" cy="1104.0801" fill="#E2E2F0" rx="8" ry="8" style="stroke:#181818;stroke-width:0.5;"/><path d="M36.1826,1112.0801 L36.1826,1139.0801 M23.1826,1120.0801 L49.1826,1120.0801 M36.1826,1139.0801 L23.1826,1154.0801 M36.1826,1139.0801 L49.1826,1154.0801" fill="none" style="stroke:#181818;stroke-width:0.5;"/></g><g class="participant participant-head" data-entity-uid="part2" data-qualified-name="A1" data-source-line="15" id="part2-head"><rect fill="#E8F5E9" height="30.4883" rx="4" ry="4" style="stroke:#181818;stroke-width:0.5;" width="85.7432" x="186.6221" y="89.9766"/><text fill="#000000" font-family="sans-serif" font-size="14" lengthAdjust="spacing" textLength="71.7432" x="193.6221" y="110.5117">Discoverer</text></g><g class="participant participant-tail" data-entity-uid="part2" data-qualified-name="A1" data-source-line="15" id="part2-tail"><rect fill="#E8F5E9" height="30.4883" rx="4" ry="4" style="stroke:#181818;stroke-width:0.5;" width="85.7432" x="186.6221" y="1079.0918"/><text fill="#000000" font-family="sans-serif" font-size="14" lengthAdjust="spacing" textLength="71.7432" x="193.6221" y="1099.627">Discoverer</text></g><g class="participant participant-head" data-entity-uid="part3" data-qualified-name="A2" data-source-line="16" id="part3-head"><rect fill="#E3F2FD" height="30.4883" rx="4" ry="4" style="stroke:#181818;stroke-width:0.5;" width="74.416" x="402.771" y="89.9766"/><text fill="#000000" font-family="sans-serif" font-size="14" lengthAdjust="spacing" textLength="60.416" x="409.771" y="110.5117">Designer</text></g><g class="participant participant-tail" data-entity-uid="part3" data-qualified-name="A2" data-source-line="16" id="part3-tail"><rect fill="#E3F2FD" height="30.4883" rx="4" ry="4" style="stroke:#181818;stroke-width:0.5;" width="74.416" x="402.771" y="1079.0918"/><text fill="#000000" font-family="sans-serif" font-size="14" lengthAdjust="spacing" textLength="60.416" x="409.771" y="1099.627">Designer</text></g><g class="participant participant-head" data-entity-uid="part4" data-qualified-name="A3" data-source-line="17" id="part4-head"><rect fill="#FFF3E0" height="30.4883" rx="4" ry="4" style="stroke:#181818;stroke-width:0.5;" width="56.5537" x="745.4907" y="89.9766"/><text fill="#000000" font-family="sans-serif" font-size="14" lengthAdjust="spacing" textLength="42.5537" x="752.4907" y="110.5117">Tester</text></g><g class="participant participant-tail" data-entity-uid="part4" data-qualified-name="A3" data-source-line="17" id="part4-tail"><rect fill="#FFF3E0" height="30.4883" rx="4" ry="4" style="stroke:#181818;stroke-width:0.5;" width="56.5537" x="745.4907" y="1079.0918"/><text fill="#000000" font-family="sans-serif" font-size="14" lengthAdjust="spacing" textLength="42.5537" x="752.4907" y="1099.627">Tester</text></g><g class="participant participant-head" data-entity-uid="part5" data-qualified-name="A4" data-source-line="18" id="part5-head"><rect fill="#F3E5F5" height="30.4883" rx="4" ry="4" style="stroke:#181818;stroke-width:0.5;" width="72.5566" x="989.7676" y="89.9766"/><text fill="#000000" font-family="sans-serif" font-size="14" lengthAdjust="spacing" textLength="58.5566" x="996.7676" y="110.5117">Reporter</text></g><g class="participant participant-tail" data-entity-uid="part5" data-qualified-name="A4" data-source-line="18" id="part5-tail"><rect fill="#F3E5F5" height="30.4883" rx="4" ry="4" style="stroke:#181818;stroke-width:0.5;" width="72.5566" x="989.7676" y="1079.0918"/><text fill="#000000" font-family="sans-serif" font-size="14" lengthAdjust="spacing" textLength="58.5566" x="996.7676" y="1099.627">Reporter</text></g><g class="participant participant-head" data-entity-uid="part6" data-qualified-name="DB" data-source-line="20" id="part6-head"><text fill="#000000" font-family="sans-serif" font-size="14" lengthAdjust="spacing" textLength="97.3711" x="1243.5933" y="102.0234">Knowledge DB</text><text fill="#000000" font-family="sans-serif" font-size="14" lengthAdjust="spacing" textLength="183.4287" x="1200.5645" y="118.5117">(past plans &#183; scripts &#183; fixes)</text><path d="M1277.2788,52.4883 C1277.2788,42.4883 1295.2788,42.4883 1295.2788,42.4883 C1295.2788,42.4883 1313.2788,42.4883 1313.2788,52.4883 L1313.2788,78.4883 C1313.2788,88.4883 1295.2788,88.4883 1295.2788,88.4883 C1295.2788,88.4883 1277.2788,88.4883 1277.2788,78.4883 L1277.2788,52.4883" fill="#ECEFF1" style="stroke:#181818;stroke-width:0.5;"/><path d="M1277.2788,52.4883 C1277.2788,62.4883 1295.2788,62.4883 1295.2788,62.4883 C1295.2788,62.4883 1313.2788,62.4883 1313.2788,52.4883" fill="none" style="stroke:#181818;stroke-width:0.5;"/></g><g class="participant participant-tail" data-entity-uid="part6" data-qualified-name="DB" data-source-line="20" id="part6-tail"><text fill="#000000" font-family="sans-serif" font-size="14" lengthAdjust="spacing" textLength="97.3711" x="1243.5933" y="1092.627">Knowledge DB</text><text fill="#000000" font-family="sans-serif" font-size="14" lengthAdjust="spacing" textLength="183.4287" x="1200.5645" y="1109.1152">(past plans &#183; scripts &#183; fixes)</text><path d="M1277.2788,1122.0684 C1277.2788,1112.0684 1295.2788,1112.0684 1295.2788,1112.0684 C1295.2788,1112.0684 1313.2788,1112.0684 1313.2788,1122.0684 L1313.2788,1148.0684 C1313.2788,1158.0684 1295.2788,1158.0684 1295.2788,1158.0684 C1295.2788,1158.0684 1277.2788,1158.0684 1277.2788,1148.0684 L1277.2788,1122.0684" fill="#ECEFF1" style="stroke:#181818;stroke-width:0.5;"/><path d="M1277.2788,1122.0684 C1277.2788,1132.0684 1295.2788,1132.0684 1295.2788,1132.0684 C1295.2788,1132.0684 1313.2788,1132.0684 1313.2788,1122.0684" fill="none" style="stroke:#181818;stroke-width:0.5;"/></g><g class="participant participant-head" data-entity-uid="part7" data-qualified-name="PW" data-source-line="21" id="part7-head"><text fill="#000000" font-family="sans-serif" font-size="14" lengthAdjust="spacing" textLength="70.0479" x="1411.686" y="102.0234">Playwright</text><text fill="#000000" font-family="sans-serif" font-size="14" lengthAdjust="spacing" textLength="93.4336" x="1399.9932" y="118.5117">(real browser)</text><path d="M1429.21,60.4883 L1429.21,84.4883 M1429.21,72.4883 L1446.21,72.4883" fill="none" style="stroke:#181818;stroke-width:0.5;"/><ellipse cx="1458.21" cy="72.4883" fill="#ECEFF1" rx="12" ry="12" style="stroke:#181818;stroke-width:0.5;"/></g><g class="participant participant-tail" data-entity-uid="part7" data-qualified-name="PW" data-source-line="21" id="part7-tail"><text fill="#000000" font-family="sans-serif" font-size="14" lengthAdjust="spacing" textLength="70.0479" x="1411.686" y="1092.627">Playwright</text><text fill="#000000" font-family="sans-serif" font-size="14" lengthAdjust="spacing" textLength="93.4336" x="1399.9932" y="1109.1152">(real browser)</text><path d="M1429.21,1116.0684 L1429.21,1140.0684 M1429.21,1128.0684 L1446.21,1128.0684" fill="none" style="stroke:#181818;stroke-width:0.5;"/><ellipse cx="1458.21" cy="1128.0684" fill="#ECEFF1" rx="12" ry="12" style="stroke:#181818;stroke-width:0.5;"/></g><g><title>Playwright</title><rect fill="#FFFFFF" height="29.3105" style="stroke:#181818;stroke-width:1;" width="10" x="1444.71" y="284.0176"/></g><g><title>Playwright</title><rect fill="#FFFFFF" height="29.3105" style="stroke:#181818;stroke-width:1;" width="10" x="1444.71" y="661.7441"/></g><g class="message" data-entity-1="part1" data-entity-2="part2" data-source-line="23" id="msg1"><polygon fill="#444444" points="217.4937,148.7754,227.4937,152.7754,217.4937,156.7754,221.4937,152.7754" style="stroke:#444444;stroke-width:1;stroke-linejoin:miter;stroke-miterlimit:10;"/><line style="stroke:#444444;stroke-width:1;" x1="36.1826" x2="223.4937" y1="152.7754" y2="152.7754"/><text fill="#333333" font-family="sans-serif" font-size="13" lengthAdjust="spacing" textLength="169.311" x="48.1826" y="148.0332">1. "Test this website" (URL)</text></g><rect fill="#EEEEEE" height="3" rx="4" ry="4" style="stroke:#EEEEEE;stroke-width:1;" width="1504.4268" x="0" y="181.4307"/><line style="stroke:#000000;stroke-width:1;" x1="0" x2="1504.4268" y1="181.4307" y2="181.4307"/><line style="stroke:#000000;stroke-width:1;" x1="0" x2="1504.4268" y1="184.4307" y2="184.4307"/><rect fill="#EEEEEE" height="23.3105" rx="4" ry="4" style="stroke:#000000;stroke-width:2;" width="342.4912" x="580.9678" y="170.7754"/><text fill="#000000" font-family="sans-serif" font-size="13" font-weight="700" lengthAdjust="spacing" textLength="324.2065" x="586.9678" y="187.3438">Step 1 &#8212; Explore the live site, THEN write a plan</text><g class="message" data-entity-1="part2" data-entity-2="part6" data-source-line="26" id="msg2"><polygon fill="#444444" points="1283.2788,221.3965,1293.2788,225.3965,1283.2788,229.3965,1287.2788,225.3965" style="stroke:#444444;stroke-width:1;stroke-linejoin:miter;stroke-miterlimit:10;"/><line style="stroke:#444444;stroke-width:1;" x1="229.4937" x2="1289.2788" y1="225.3965" y2="225.3965"/><text fill="#333333" font-family="sans-serif" font-size="13" lengthAdjust="spacing" textLength="197.1074" x="663.8325" y="220.6543">ask for previous plan (memory)</text></g><g class="message" data-entity-1="part6" data-entity-2="part2" data-source-line="27" id="msg3"><polygon fill="#444444" points="240.4937,250.707,230.4937,254.707,240.4937,258.707,236.4937,254.707" style="stroke:#444444;stroke-width:1;stroke-linejoin:miter;stroke-miterlimit:10;"/><line style="stroke:#444444;stroke-width:1;stroke-dasharray:2,2;" x1="234.4937" x2="1294.2788" y1="254.707" y2="254.707"/><text fill="#333333" font-family="sans-serif" font-size="13" lengthAdjust="spacing" textLength="281.0234" x="621.8745" y="249.9648">its own previous plan (memory / head-start)</text></g><g class="message" data-entity-1="part2" data-entity-2="part7" data-source-line="28" id="msg4"><polygon fill="#444444" points="1432.71,280.0176,1442.71,284.0176,1432.71,288.0176,1436.71,284.0176" style="stroke:#444444;stroke-width:1;stroke-linejoin:miter;stroke-miterlimit:10;"/><line style="stroke:#444444;stroke-width:1;" x1="229.4937" x2="1438.71" y1="284.0176" y2="284.0176"/><text fill="#333333" font-family="sans-serif" font-size="13" lengthAdjust="spacing" textLength="195.4126" x="739.3955" y="279.2754">open the site &amp; click through it</text></g><g class="message" data-entity-1="part7" data-entity-2="part2" data-source-line="30" id="msg5"><polygon fill="#444444" points="240.4937,309.3281,230.4937,313.3281,240.4937,317.3281,236.4937,313.3281" style="stroke:#444444;stroke-width:1;stroke-linejoin:miter;stroke-miterlimit:10;"/><line style="stroke:#444444;stroke-width:1;stroke-dasharray:2,2;" x1="234.4937" x2="1448.71" y1="313.3281" y2="313.3281"/><text fill="#333333" font-family="sans-serif" font-size="13" lengthAdjust="spacing" textLength="131.2251" x="773.9893" y="308.5859">pages + screenshots</text></g><g class="message" data-entity-1="part2" data-entity-2="part2" data-source-line="32" id="msg6"><line style="stroke:#444444;stroke-width:1;" x1="229.4937" x2="271.4937" y1="357.9492" y2="357.9492"/><line style="stroke:#444444;stroke-width:1;" x1="271.4937" x2="271.4937" y1="357.9492" y2="370.9492"/><line style="stroke:#444444;stroke-width:1;" x1="230.4937" x2="271.4937" y1="370.9492" y2="370.9492"/><polygon fill="#444444" points="240.4937,366.9492,230.4937,370.9492,240.4937,374.9492,236.4937,370.9492" style="stroke:#444444;stroke-width:1;stroke-linejoin:miter;stroke-miterlimit:10;"/><text fill="#333333" font-family="sans-serif" font-size="13" lengthAdjust="spacing" textLength="130.5015" x="236.4937" y="337.8965">write a plain-English</text><text fill="#333333" font-family="sans-serif" font-size="13" font-weight="700" lengthAdjust="spacing" textLength="61.8706" x="371.1084" y="337.8965">Test Plan</text><text fill="#333333" font-family="sans-serif" font-size="13" lengthAdjust="spacing" textLength="185.2817" x="242.0955" y="353.207">(the user flows worth testing)</text></g><rect fill="#EEEEEE" height="3" rx="4" ry="4" style="stroke:#EEEEEE;stroke-width:1;" width="1504.4268" x="0" y="399.6045"/><line style="stroke:#000000;stroke-width:1;" x1="0" x2="1504.4268" y1="399.6045" y2="399.6045"/><line style="stroke:#000000;stroke-width:1;" x1="0" x2="1504.4268" y1="402.6045" y2="402.6045"/><rect fill="#EEEEEE" height="23.3105" rx="4" ry="4" style="stroke:#000000;stroke-width:2;" width="412.2964" x="546.0652" y="388.9492"/><text fill="#000000" font-family="sans-serif" font-size="13" font-weight="700" lengthAdjust="spacing" textLength="394.0117" x="552.0652" y="405.5176">Step 2 &#8212; Reuse what works, write the rest (spec files only)</text><g class="message" data-entity-1="part2" data-entity-2="part3" data-source-line="35" id="msg7"><polygon fill="#444444" points="427.979,439.5703,437.979,443.5703,427.979,447.5703,431.979,443.5703" style="stroke:#444444;stroke-width:1;stroke-linejoin:miter;stroke-miterlimit:10;"/><line style="stroke:#444444;stroke-width:1;" x1="229.4937" x2="433.979" y1="443.5703" y2="443.5703"/><text fill="#333333" font-family="sans-serif" font-size="13" lengthAdjust="spacing" textLength="148.5415" x="260.4656" y="438.8281">hand over the Test Plan</text></g><g class="message" data-entity-1="part3" data-entity-2="part6" data-source-line="36" id="msg8"><polygon fill="#444444" points="1283.2788,468.8809,1293.2788,472.8809,1283.2788,476.8809,1287.2788,472.8809" style="stroke:#444444;stroke-width:1;stroke-linejoin:miter;stroke-miterlimit:10;"/><line style="stroke:#444444;stroke-width:1;" x1="439.979" x2="1289.2788" y1="472.8809" y2="472.8809"/><text fill="#333333" font-family="sans-serif" font-size="13" lengthAdjust="spacing" textLength="180.4067" x="777.4255" y="468.1387">ask for matching test scripts</text></g><g class="message" data-entity-1="part6" data-entity-2="part3" data-source-line="37" id="msg9"><polygon fill="#444444" points="450.979,498.1914,440.979,502.1914,450.979,506.1914,446.979,502.1914" style="stroke:#444444;stroke-width:1;stroke-linejoin:miter;stroke-miterlimit:10;"/><line style="stroke:#444444;stroke-width:1;stroke-dasharray:2,2;" x1="444.979" x2="1294.2788" y1="502.1914" y2="502.1914"/><text fill="#333333" font-family="sans-serif" font-size="13" lengthAdjust="spacing" textLength="252.1543" x="718.7034" y="497.4492">matching test scripts from past runs -&gt;</text><text fill="#333333" font-family="sans-serif" font-size="13" font-weight="700" lengthAdjust="spacing" textLength="41.5835" x="974.9709" y="497.4492">REUSE</text></g><g class="message" data-entity-1="part3" data-entity-2="part3" data-source-line="38" id="msg10"><line style="stroke:#444444;stroke-width:1;" x1="439.979" x2="481.979" y1="546.8125" y2="546.8125"/><line style="stroke:#444444;stroke-width:1;" x1="481.979" x2="481.979" y1="546.8125" y2="559.8125"/><line style="stroke:#444444;stroke-width:1;" x1="440.979" x2="481.979" y1="559.8125" y2="559.8125"/><polygon fill="#444444" points="450.979,555.8125,440.979,559.8125,450.979,563.8125,446.979,559.8125" style="stroke:#444444;stroke-width:1;stroke-linejoin:miter;stroke-miterlimit:10;"/><text fill="#333333" font-family="sans-serif" font-size="13" lengthAdjust="spacing" textLength="31.1987" x="453.5647" y="526.7598">write</text><text fill="#333333" font-family="sans-serif" font-size="13" font-weight="700" lengthAdjust="spacing" textLength="77.2954" x="488.8767" y="526.7598">new scripts</text><text fill="#333333" font-family="sans-serif" font-size="13" lengthAdjust="spacing" textLength="189.8965" x="570.2854" y="526.7598">for everything not yet covered</text><text fill="#333333" font-family="sans-serif" font-size="13" lengthAdjust="spacing" textLength="42.0532" x="446.979" y="542.0703">(writes</text><text fill="#333333" font-family="sans-serif" font-size="13" font-weight="700" lengthAdjust="spacing" textLength="93.3867" x="493.1455" y="542.0703">test spec files</text><text fill="#333333" font-family="sans-serif" font-size="13" lengthAdjust="spacing" textLength="176.1221" x="590.6455" y="542.0703">only &#8212; does NOT run them)</text></g><rect fill="#EEEEEE" height="3" rx="4" ry="4" style="stroke:#EEEEEE;stroke-width:1;" width="1504.4268" x="0" y="588.4678"/><line style="stroke:#000000;stroke-width:1;" x1="0" x2="1504.4268" y1="588.4678" y2="588.4678"/><line style="stroke:#000000;stroke-width:1;" x1="0" x2="1504.4268" y1="591.4678" y2="591.4678"/><rect fill="#EEEEEE" height="23.3105" rx="4" ry="4" style="stroke:#000000;stroke-width:2;" width="427.6895" x="538.3687" y="577.8125"/><text fill="#000000" font-family="sans-serif" font-size="13" font-weight="700" lengthAdjust="spacing" textLength="409.4048" x="544.3687" y="594.3809">Step 3 &#8212; Hand over to the Tester, run for real, then self-heal</text><g class="message" data-entity-1="part3" data-entity-2="part4" data-source-line="41" id="msg11"><polygon fill="#444444" points="761.7676,628.4336,771.7676,632.4336,761.7676,636.4336,765.7676,632.4336" style="stroke:#444444;stroke-width:1;stroke-linejoin:miter;stroke-miterlimit:10;"/><line style="stroke:#444444;stroke-width:1;" x1="439.979" x2="767.7676" y1="632.4336" y2="632.4336"/><text fill="#333333" font-family="sans-serif" font-size="13" lengthAdjust="spacing" textLength="141.7686" x="487.239" y="627.6914">hand over the finished</text><text fill="#333333" font-family="sans-serif" font-size="13" font-weight="700" lengthAdjust="spacing" textLength="93.3867" x="633.1208" y="627.6914">test spec files</text></g><g class="message" data-entity-1="part4" data-entity-2="part7" data-source-line="42" id="msg12"><polygon fill="#444444" points="1432.71,657.7441,1442.71,661.7441,1432.71,665.7441,1436.71,661.7441" style="stroke:#444444;stroke-width:1;stroke-linejoin:miter;stroke-miterlimit:10;"/><line style="stroke:#444444;stroke-width:1;" x1="773.7676" x2="1438.71" y1="661.7441" y2="661.7441"/><text fill="#333333" font-family="sans-serif" font-size="13" lengthAdjust="spacing" textLength="181.6318" x="1018.4229" y="657.002">run every test in the browser</text></g><g class="message" data-entity-1="part7" data-entity-2="part4" data-source-line="44" id="msg13"><polygon fill="#444444" points="784.7676,687.0547,774.7676,691.0547,784.7676,695.0547,780.7676,691.0547" style="stroke:#444444;stroke-width:1;stroke-linejoin:miter;stroke-miterlimit:10;"/><line style="stroke:#444444;stroke-width:1;stroke-dasharray:2,2;" x1="778.7676" x2="1448.71" y1="691.0547" y2="691.0547"/><text fill="#333333" font-family="sans-serif" font-size="13" lengthAdjust="spacing" textLength="109.751" x="1056.8633" y="686.3125">pass / fail results</text></g><g class="message" data-entity-1="part4" data-entity-2="part6" data-source-line="46" id="msg14"><polygon fill="#444444" points="1283.2788,716.3652,1293.2788,720.3652,1283.2788,724.3652,1287.2788,720.3652" style="stroke:#444444;stroke-width:1;stroke-linejoin:miter;stroke-miterlimit:10;"/><line style="stroke:#444444;stroke-width:1;" x1="773.7676" x2="1289.2788" y1="720.3652" y2="720.3652"/><text fill="#333333" font-family="sans-serif" font-size="13" lengthAdjust="spacing" textLength="112.7725" x="978.137" y="715.623">ask for prior fixes</text></g><g class="message" data-entity-1="part6" data-entity-2="part4" data-source-line="47" id="msg15"><polygon fill="#444444" points="784.7676,745.6758,774.7676,749.6758,784.7676,753.6758,780.7676,749.6758" style="stroke:#444444;stroke-width:1;stroke-linejoin:miter;stroke-miterlimit:10;"/><line style="stroke:#444444;stroke-width:1;stroke-dasharray:2,2;" x1="778.7676" x2="1294.2788" y1="749.6758" y2="749.6758"/><text fill="#333333" font-family="sans-serif" font-size="13" lengthAdjust="spacing" textLength="274.479" x="897.2837" y="744.9336">fixes that worked before for similar failures</text></g><g class="message" data-entity-1="part4" data-entity-2="part4" data-source-line="48" id="msg16"><line style="stroke:#444444;stroke-width:1;" x1="773.7676" x2="815.7676" y1="778.9863" y2="778.9863"/><line style="stroke:#444444;stroke-width:1;" x1="815.7676" x2="815.7676" y1="778.9863" y2="791.9863"/><line style="stroke:#444444;stroke-width:1;" x1="774.7676" x2="815.7676" y1="791.9863" y2="791.9863"/><polygon fill="#444444" points="784.7676,787.9863,774.7676,791.9863,784.7676,795.9863,780.7676,791.9863" style="stroke:#444444;stroke-width:1;stroke-linejoin:miter;stroke-miterlimit:10;"/><text fill="#333333" font-family="sans-serif" font-size="13" lengthAdjust="spacing" textLength="238.2783" x="780.7676" y="774.2441">repair what failed &#183; park the unfixable</text></g><rect fill="#EEEEEE" height="3" rx="4" ry="4" style="stroke:#EEEEEE;stroke-width:1;" width="1504.4268" x="0" y="820.6416"/><line style="stroke:#000000;stroke-width:1;" x1="0" x2="1504.4268" y1="820.6416" y2="820.6416"/><line style="stroke:#000000;stroke-width:1;" x1="0" x2="1504.4268" y1="823.6416" y2="823.6416"/><rect fill="#EEEEEE" height="23.3105" rx="4" ry="4" style="stroke:#000000;stroke-width:2;" width="355.1865" x="574.6201" y="809.9863"/><text fill="#000000" font-family="sans-serif" font-size="13" font-weight="700" lengthAdjust="spacing" textLength="336.9019" x="580.6201" y="826.5547">Step 4 &#8212; Explain the results, then remember them</text><g class="message" data-entity-1="part4" data-entity-2="part5" data-source-line="51" id="msg17"><polygon fill="#444444" points="1014.0459,860.6074,1024.0459,864.6074,1014.0459,868.6074,1018.0459,864.6074" style="stroke:#444444;stroke-width:1;stroke-linejoin:miter;stroke-miterlimit:10;"/><line style="stroke:#444444;stroke-width:1;" x1="773.7676" x2="1020.0459" y1="864.6074" y2="864.6074"/><text fill="#333333" font-family="sans-serif" font-size="13" lengthAdjust="spacing" textLength="168.0479" x="815.8828" y="859.8652">final results + screenshots</text></g><g class="message" data-entity-1="part5" data-entity-2="part5" data-source-line="52" id="msg18"><line style="stroke:#444444;stroke-width:1;" x1="1026.0459" x2="1068.0459" y1="909.2285" y2="909.2285"/><line style="stroke:#444444;stroke-width:1;" x1="1068.0459" x2="1068.0459" y1="909.2285" y2="922.2285"/><line style="stroke:#444444;stroke-width:1;" x1="1027.0459" x2="1068.0459" y1="922.2285" y2="922.2285"/><polygon fill="#444444" points="1037.0459,918.2285,1027.0459,922.2285,1037.0459,926.2285,1033.0459,922.2285" style="stroke:#444444;stroke-width:1;stroke-linejoin:miter;stroke-miterlimit:10;"/><text fill="#333333" font-family="sans-serif" font-size="13" lengthAdjust="spacing" textLength="151.9312" x="1060.2996" y="889.1758">write a human-readable</text><text fill="#333333" font-family="sans-serif" font-size="13" font-weight="700" lengthAdjust="spacing" textLength="44.6812" x="1216.344" y="889.1758">Report</text><text fill="#333333" font-family="sans-serif" font-size="13" lengthAdjust="spacing" textLength="255.2329" x="1033.0459" y="904.4863">(summary &#183; issues &#183; recommended fixes)</text></g><g class="message" data-entity-1="part5" data-entity-2="part1" data-source-line="53" id="msg19"><polygon fill="#444444" points="47.1826,947.5391,37.1826,951.5391,47.1826,955.5391,43.1826,951.5391" style="stroke:#444444;stroke-width:1;stroke-linejoin:miter;stroke-miterlimit:10;"/><line style="stroke:#444444;stroke-width:1;stroke-dasharray:2,2;" x1="41.1826" x2="1025.0459" y1="951.5391" y2="951.5391"/><text fill="#333333" font-family="sans-serif" font-size="13" lengthAdjust="spacing" textLength="93.9907" x="484.1189" y="946.7969">&#128196; Test Report</text></g><g class="message" data-entity-1="part5" data-entity-2="part6" data-source-line="54" id="msg20"><polygon fill="#444444" points="1283.2788,976.8496,1293.2788,980.8496,1283.2788,984.8496,1287.2788,980.8496" style="stroke:#444444;stroke-width:1;stroke-linejoin:miter;stroke-miterlimit:10;"/><line style="stroke:#444444;stroke-width:1;" x1="1026.0459" x2="1289.2788" y1="980.8496" y2="980.8496"/><text fill="#333333" font-family="sans-serif" font-size="13" lengthAdjust="spacing" textLength="227.8682" x="1046.7283" y="976.1074">save this run -&gt; next run is smarter</text></g><path d="M5,997.8496 L5,1060.8496 A4,4 0 0 0 9,1064.8496 L1477,1064.8496 A4,4 0 0 0 1481,1060.8496 L1481,1003.8496 L1471,993.8496 L9,993.8496 A4,4 0 0 0 5,997.8496" fill="#FFF7E0" style="stroke:#E0C46C;stroke-width:0.5;"/><path d="M1471,993.8496 L1471,1001.8496 A2,2 0 0 0 1473,1003.8496 L1481,1003.8496 L1471,993.8496" fill="#FFF7E0" style="stroke:#E0C46C;stroke-width:0.5;"/><text fill="#000000" font-family="sans-serif" font-size="13" lengthAdjust="spacing" textLength="254.0522" x="468.6492" y="1011.418">Playwright (the real browser) is driven in</text><text fill="#000000" font-family="sans-serif" font-size="13" font-weight="700" lengthAdjust="spacing" textLength="71.4429" x="726.8147" y="1011.418">two places</text><text fill="#000000" font-family="sans-serif" font-size="13" lengthAdjust="spacing" textLength="136.6396" x="798.2576" y="1011.418">: when the Discoverer</text><text fill="#000000" font-family="sans-serif" font-size="13" lengthAdjust="spacing" textLength="198.6689" x="468.6492" y="1026.7285">explores the site, and when the</text><text fill="#000000" font-family="sans-serif" font-size="13" font-weight="700" lengthAdjust="spacing" textLength="42.7324" x="671.4314" y="1026.7285">Tester</text><text fill="#000000" font-family="sans-serif" font-size="13" lengthAdjust="spacing" textLength="252.8906" x="718.2771" y="1026.7285">runs the spec files and then heals them.</text><text fill="#000000" font-family="sans-serif" font-size="13" lengthAdjust="spacing" textLength="539.1064" x="468.6492" y="1042.0391">The Designer's job ends once the spec files are written &#8212; it never drives the browser.</text><text fill="#000000" font-family="sans-serif" font-size="13" lengthAdjust="spacing" textLength="132.5581" x="468.6492" y="1057.3496">The Knowledge DB is</text><text fill="#000000" font-family="sans-serif" font-size="13" font-weight="700" lengthAdjust="spacing" textLength="55.123" x="605.3206" y="1057.3496">optional</text><text fill="#000000" font-family="sans-serif" font-size="13" lengthAdjust="spacing" textLength="344.2207" x="664.5569" y="1057.3496">&#8212; without it the same four agents still run, just "cold".</text><?plantuml-src RLPBSjj64DtZ55rCLImXf6E9SkAeIgdIXoodaiWkMIfjiXa2JMBCmGmoCn35NHQvGRBFCRBFKNA2726l1-37ih1GIS3hxjTlNlSewcYOpd-WMmvnzA7LaUdVt_waymNRIFVEB-V6hUZWmYbVqhi7zW-QLuTPze96en4PvvRq9SsPpIaLXfKTacTLgfdX8SqaQ3JtccrfrXAGXQMsZVAgffagbWllMbjUEkCyVJ5DpnuYLAfqAsqND5ScyFuN_hLbM_3F789QyBdH2qi56BFVGwNaXVEMFRtPUt_klLlrHK_Iy_JZrDdO0yRfsGDSkyWNpt3_TlBgAShvadsFcBowFFdcCijK4V7du2wm7v0A9Bza6OAYBdIZ8FhWIeV2GUaUSNw4w3VJrvFldi0ue6q1KO8T0pQU7a-lFeN9mNQWX1edicEG_GHrmutpSPVi1B3nvFNqTPQLAggP2amq-D6wbU5omNHryOizQ5I8r1Xb0_tpDuN2woQcN-VwaSDXOdzr0LgNa-dqA9k9OCglaUYzKUkLruig8WqCOsW6sI75OIBwwOCix--tMJ9HZ4RVYowdTFIowv1YfGEjU1RWu04TtDty19EUdT67o0qT9KzF7XiS1GFAPFG3as27TFjsSaqW0-Uhr0sTdML8ZX8WVuhoIvhZp1hF3zgreSCSr5mxlpxCW1bjs6YqxrRsUIXzJHL6OnGYX3_iAw2nKt8DsyHA266S2gEB9Lx0OOiAISKq-a7Xs_lx317RUWtC7-WhaPxPXih5a9MyZ-wg9F1UYzgE9dPXTAWepvDyE12RvpWCeT6AmZBtK1Ikg2W2WZdSK_GuANh3WDAgKb60op3iYqWIBsaFGiC5x610qrcpFjnf2x-UKgLiIUBr5B9bak7ZK_bh5OjAbe6GsPXjgxuaUnP1S-zgIaxrBOmAS9xVJEu-JFAyBvE2E-9vRdcr2StpL9X1RnrJOkiYhJbIDvubv4fX0N5TpMstY9L-aqgb0-BwtQqGa3xhFHt72V5s9uFRAi5-c2A4Wup8KBvOx3up7rKoCY9bry3uCoddsk9qkNoEMGRyndfI83NOYQOx7_R3-Aplnibt8S3ESwMDd7DhFlVT-9dvqVYPLiFss2HPUeEolOd0USPpcLC92hhMHlbKgaMfFd4AzDmexJlxoNT4OlTWhIrJ4wr5Phc8TcgVRFU0wZljsVVQUiQepZe9wwHlL-qaqRHgs-sJcGDW0zjCMTNMoeusTw5uBctOD6EXhMlPWs2hGsWvxKpFXQjht9HeezkVAItofeLtIl_zzSVltOXqgVggIUEW7hXRWNAWU6lvCHaU1IYWcDoC6UmBQeLt8MH4knrC1vqKUsjOuagF9Md54p3HoidYACG_QBBg5zRkga92xlPhsAwo8Oadj-1krR37RAHHJB3TVX1iEWKnT_fQlqJMModJNtKl0drqCu98iauA_Ym5N2C74955Jbf7224ZaLe9-zxUfDw_qgJfF7TDr0vd3PgIOwLZvTeekL8rLOipMqzA_aM2kb4R8mqDwMEBmnaKpfI3bnb8ohxWx7y0?></g></svg>