<svg xmlns="http://www.w3.org/2000/svg" xmlns:xlink="http://www.w3.org/1999/xlink" contentStyleType="text/css" data-diagram-type="SEQUENCE" height="1017px" preserveAspectRatio="none" style="width:1497px;height:1017px;background:#FFFFFF;" version="1.1" viewBox="0 0 1497 1017" width="1497px" zoomAndPan="magnify"><?plantuml 1.2026.6?><defs/><g><g class="title" data-source-line="1"><text fill="#000000" font-family="sans-serif" font-size="14" font-weight="700" lengthAdjust="spacing" textLength="363.0088" x="563.6233" y="28.5352">AI Test-Suite &#8212; Agent Workflow (Board Overview)</text></g><g><title>Playwright</title><rect fill="#FFFFFF" height="29.3105" style="stroke:#181818;stroke-width:1;" width="10" x="1431.5386" y="254.707"/></g><g><title>Playwright</title><rect fill="#FFFFFF" height="29.3105" style="stroke:#181818;stroke-width:1;" width="10" x="1431.5386" y="558.502"/></g><g class="participant-lifeline" data-entity-uid="part1" data-qualified-name="User" data-source-line="13" id="part1-lifeline"><g><title>User</title><rect fill="#000000" fill-opacity="0.00000" height="810.7637" width="8" x="32.1826" y="121.4648"/><line style="stroke:#181818;stroke-width:0.5;stroke-dasharray:5,5;" x1="36" x2="36" y1="121.4648" y2="932.2285"/></g></g><g class="participant-lifeline" data-entity-uid="part2" data-qualified-name="A1" data-source-line="15" id="part2-lifeline"><g><title>Discoverer</title><rect fill="#000000" fill-opacity="0.00000" height="810.7637" width="8" x="225.4937" y="121.4648"/><line style="stroke:#181818;stroke-width:0.5;stroke-dasharray:5,5;" x1="228.6221" x2="228.6221" y1="121.4648" y2="932.2285"/></g></g><g class="participant-lifeline" data-entity-uid="part3" data-qualified-name="A2" data-source-line="16" id="part3-lifeline"><g><title>Designer</title><rect fill="#000000" fill-opacity="0.00000" height="810.7637" width="8" x="435.979" y="121.4648"/><line style="stroke:#181818;stroke-width:0.5;stroke-dasharray:5,5;" x1="439.771" x2="439.771" y1="121.4648" y2="932.2285"/></g></g><g class="participant-lifeline" data-entity-uid="part4" data-qualified-name="A3" data-source-line="17" id="part4-lifeline"><g><title>Evolver</title><rect fill="#000000" fill-opacity="0.00000" height="810.7637" width="8" x="756.5962" y="121.4648"/><line style="stroke:#181818;stroke-width:0.5;stroke-dasharray:5,5;" x1="760.4688" x2="760.4688" y1="121.4648" y2="932.2285"/></g></g><g class="participant-lifeline" data-entity-uid="part5" data-qualified-name="A4" data-source-line="18" id="part5-lifeline"><g><title>Reporter</title><rect fill="#000000" fill-opacity="0.00000" height="810.7637" width="8" x="1008.8745" y="121.4648"/><line style="stroke:#181818;stroke-width:0.5;stroke-dasharray:5,5;" x1="1012.5962" x2="1012.5962" y1="121.4648" y2="932.2285"/></g></g><g class="participant-lifeline" data-entity-uid="part6" data-qualified-name="DB" data-source-line="20" id="part6-lifeline"><g><title>Knowledge DB</title><rect fill="#000000" fill-opacity="0.00000" height="810.7637" width="8" x="1278.1074" y="121.4648"/><line style="stroke:#181818;stroke-width:0.5;stroke-dasharray:5,5;" x1="1281.3931" x2="1281.3931" y1="121.4648" y2="932.2285"/></g></g><g class="participant-lifeline" data-entity-uid="part7" data-qualified-name="PW" data-source-line="21" id="part7-lifeline"><g><title>Playwright</title><rect fill="#000000" fill-opacity="0.00000" height="810.7637" width="8" x="1432.5386" y="121.4648"/><line style="stroke:#181818;stroke-width:0.5;stroke-dasharray:5,5;" x1="1435.8218" x2="1435.8218" y1="121.4648" y2="932.2285"/></g></g><g class="participant participant-head" data-entity-uid="part1" data-qualified-name="User" data-source-line="13" id="part1-head"><text fill="#000000" font-family="sans-serif" font-size="14" lengthAdjust="spacing" textLength="30.3652" x="18" y="118.5117">User</text><ellipse cx="36.1826" cy="53.4766" fill="#E2E2F0" rx="8" ry="8" style="stroke:#181818;stroke-width:0.5;"/><path d="M36.1826,61.4766 L36.1826,88.4766 M23.1826,69.4766 L49.1826,69.4766 M36.1826,88.4766 L23.1826,103.4766 M36.1826,88.4766 L49.1826,103.4766" fill="none" style="stroke:#181818;stroke-width:0.5;"/></g><g class="participant participant-tail" data-entity-uid="part1" data-qualified-name="User" data-source-line="13" id="part1-tail"><text fill="#000000" font-family="sans-serif" font-size="14" lengthAdjust="spacing" textLength="30.3652" x="18" y="944.7637">User</text><ellipse cx="36.1826" cy="956.2168" fill="#E2E2F0" rx="8" ry="8" style="stroke:#181818;stroke-width:0.5;"/><path d="M36.1826,964.2168 L36.1826,991.2168 M23.1826,972.2168 L49.1826,972.2168 M36.1826,991.2168 L23.1826,1006.2168 M36.1826,991.2168 L49.1826,1006.2168" fill="none" style="stroke:#181818;stroke-width:0.5;"/></g><g class="participant participant-head" data-entity-uid="part2" data-qualified-name="A1" data-source-line="15" id="part2-head"><rect fill="#E8F5E9" height="30.4883" rx="4" ry="4" style="stroke:#181818;stroke-width:0.5;" width="85.7432" x="186.6221" y="89.9766"/><text fill="#000000" font-family="sans-serif" font-size="14" lengthAdjust="spacing" textLength="71.7432" x="193.6221" y="110.5117">Discoverer</text></g><g class="participant participant-tail" data-entity-uid="part2" data-qualified-name="A1" data-source-line="15" id="part2-tail"><rect fill="#E8F5E9" height="30.4883" rx="4" ry="4" style="stroke:#181818;stroke-width:0.5;" width="85.7432" x="186.6221" y="931.2285"/><text fill="#000000" font-family="sans-serif" font-size="14" lengthAdjust="spacing" textLength="71.7432" x="193.6221" y="951.7637">Discoverer</text></g><g class="participant participant-head" data-entity-uid="part3" data-qualified-name="A2" data-source-line="16" id="part3-head"><rect fill="#E3F2FD" height="30.4883" rx="4" ry="4" style="stroke:#181818;stroke-width:0.5;" width="74.416" x="402.771" y="89.9766"/><text fill="#000000" font-family="sans-serif" font-size="14" lengthAdjust="spacing" textLength="60.416" x="409.771" y="110.5117">Designer</text></g><g class="participant participant-tail" data-entity-uid="part3" data-qualified-name="A2" data-source-line="16" id="part3-tail"><rect fill="#E3F2FD" height="30.4883" rx="4" ry="4" style="stroke:#181818;stroke-width:0.5;" width="74.416" x="402.771" y="931.2285"/><text fill="#000000" font-family="sans-serif" font-size="14" lengthAdjust="spacing" textLength="60.416" x="409.771" y="951.7637">Designer</text></g><g class="participant participant-head" data-entity-uid="part4" data-qualified-name="A3" data-source-line="17" id="part4-head"><rect fill="#FFF3E0" height="30.4883" rx="4" ry="4" style="stroke:#181818;stroke-width:0.5;" width="62.2549" x="729.4688" y="89.9766"/><text fill="#000000" font-family="sans-serif" font-size="14" lengthAdjust="spacing" textLength="48.2549" x="736.4688" y="110.5117">Evolver</text></g><g class="participant participant-tail" data-entity-uid="part4" data-qualified-name="A3" data-source-line="17" id="part4-tail"><rect fill="#FFF3E0" height="30.4883" rx="4" ry="4" style="stroke:#181818;stroke-width:0.5;" width="62.2549" x="729.4688" y="931.2285"/><text fill="#000000" font-family="sans-serif" font-size="14" lengthAdjust="spacing" textLength="48.2549" x="736.4688" y="951.7637">Evolver</text></g><g class="participant participant-head" data-entity-uid="part5" data-qualified-name="A4" data-source-line="18" id="part5-head"><rect fill="#F3E5F5" height="30.4883" rx="4" ry="4" style="stroke:#181818;stroke-width:0.5;" width="72.5566" x="976.5962" y="89.9766"/><text fill="#000000" font-family="sans-serif" font-size="14" lengthAdjust="spacing" textLength="58.5566" x="983.5962" y="110.5117">Reporter</text></g><g class="participant participant-tail" data-entity-uid="part5" data-qualified-name="A4" data-source-line="18" id="part5-tail"><rect fill="#F3E5F5" height="30.4883" rx="4" ry="4" style="stroke:#181818;stroke-width:0.5;" width="72.5566" x="976.5962" y="931.2285"/><text fill="#000000" font-family="sans-serif" font-size="14" lengthAdjust="spacing" textLength="58.5566" x="983.5962" y="951.7637">Reporter</text></g><g class="participant participant-head" data-entity-uid="part6" data-qualified-name="DB" data-source-line="20" id="part6-head"><text fill="#000000" font-family="sans-serif" font-size="14" lengthAdjust="spacing" textLength="97.3711" x="1230.4219" y="102.0234">Knowledge DB</text><text fill="#000000" font-family="sans-serif" font-size="14" lengthAdjust="spacing" textLength="183.4287" x="1187.3931" y="118.5117">(past plans &#183; scripts &#183; fixes)</text><path d="M1264.1074,52.4883 C1264.1074,42.4883 1282.1074,42.4883 1282.1074,42.4883 C1282.1074,42.4883 1300.1074,42.4883 1300.1074,52.4883 L1300.1074,78.4883 C1300.1074,88.4883 1282.1074,88.4883 1282.1074,88.4883 C1282.1074,88.4883 1264.1074,88.4883 1264.1074,78.4883 L1264.1074,52.4883" fill="#ECEFF1" style="stroke:#181818;stroke-width:0.5;"/><path d="M1264.1074,52.4883 C1264.1074,62.4883 1282.1074,62.4883 1282.1074,62.4883 C1282.1074,62.4883 1300.1074,62.4883 1300.1074,52.4883" fill="none" style="stroke:#181818;stroke-width:0.5;"/></g><g class="participant participant-tail" data-entity-uid="part6" data-qualified-name="DB" data-source-line="20" id="part6-tail"><text fill="#000000" font-family="sans-serif" font-size="14" lengthAdjust="spacing" textLength="97.3711" x="1230.4219" y="944.7637">Knowledge DB</text><text fill="#000000" font-family="sans-serif" font-size="14" lengthAdjust="spacing" textLength="183.4287" x="1187.3931" y="961.252">(past plans &#183; scripts &#183; fixes)</text><path d="M1264.1074,974.2051 C1264.1074,964.2051 1282.1074,964.2051 1282.1074,964.2051 C1282.1074,964.2051 1300.1074,964.2051 1300.1074,974.2051 L1300.1074,1000.2051 C1300.1074,1010.2051 1282.1074,1010.2051 1282.1074,1010.2051 C1282.1074,1010.2051 1264.1074,1010.2051 1264.1074,1000.2051 L1264.1074,974.2051" fill="#ECEFF1" style="stroke:#181818;stroke-width:0.5;"/><path d="M1264.1074,974.2051 C1264.1074,984.2051 1282.1074,984.2051 1282.1074,984.2051 C1282.1074,984.2051 1300.1074,984.2051 1300.1074,974.2051" fill="none" style="stroke:#181818;stroke-width:0.5;"/></g><g class="participant participant-head" data-entity-uid="part7" data-qualified-name="PW" data-source-line="21" id="part7-head"><text fill="#000000" font-family="sans-serif" font-size="14" lengthAdjust="spacing" textLength="70.0479" x="1398.5146" y="102.0234">Playwright</text><text fill="#000000" font-family="sans-serif" font-size="14" lengthAdjust="spacing" textLength="93.4336" x="1386.8218" y="118.5117">(real browser)</text><path d="M1416.0386,60.4883 L1416.0386,84.4883 M1416.0386,72.4883 L1433.0386,72.4883" fill="none" style="stroke:#181818;stroke-width:0.5;"/><ellipse cx="1445.0386" cy="72.4883" fill="#ECEFF1" rx="12" ry="12" style="stroke:#181818;stroke-width:0.5;"/></g><g class="participant participant-tail" data-entity-uid="part7" data-qualified-name="PW" data-source-line="21" id="part7-tail"><text fill="#000000" font-family="sans-serif" font-size="14" lengthAdjust="spacing" textLength="70.0479" x="1398.5146" y="944.7637">Playwright</text><text fill="#000000" font-family="sans-serif" font-size="14" lengthAdjust="spacing" textLength="93.4336" x="1386.8218" y="961.252">(real browser)</text><path d="M1416.0386,968.2051 L1416.0386,992.2051 M1416.0386,980.2051 L1433.0386,980.2051" fill="none" style="stroke:#181818;stroke-width:0.5;"/><ellipse cx="1445.0386" cy="980.2051" fill="#ECEFF1" rx="12" ry="12" style="stroke:#181818;stroke-width:0.5;"/></g><g><title>Playwright</title><rect fill="#FFFFFF" height="29.3105" style="stroke:#181818;stroke-width:1;" width="10" x="1431.5386" y="254.707"/></g><g><title>Playwright</title><rect fill="#FFFFFF" height="29.3105" style="stroke:#181818;stroke-width:1;" width="10" x="1431.5386" y="558.502"/></g><g class="message" data-entity-1="part1" data-entity-2="part2" data-source-line="23" id="msg1"><polygon fill="#444444" points="217.4937,148.7754,227.4937,152.7754,217.4937,156.7754,221.4937,152.7754" style="stroke:#444444;stroke-width:1;stroke-linejoin:miter;stroke-miterlimit:10;"/><line style="stroke:#444444;stroke-width:1;" x1="36.1826" x2="223.4937" y1="152.7754" y2="152.7754"/><text fill="#333333" font-family="sans-serif" font-size="13" lengthAdjust="spacing" textLength="169.311" x="48.1826" y="148.0332">1. "Test this website" (URL)</text></g><rect fill="#EEEEEE" height="3" rx="4" ry="4" style="stroke:#EEEEEE;stroke-width:1;" width="1491.2554" x="0" y="181.4307"/><line style="stroke:#000000;stroke-width:1;" x1="0" x2="1491.2554" y1="181.4307" y2="181.4307"/><line style="stroke:#000000;stroke-width:1;" x1="0" x2="1491.2554" y1="184.4307" y2="184.4307"/><rect fill="#EEEEEE" height="23.3105" rx="4" ry="4" style="stroke:#000000;stroke-width:2;" width="342.4912" x="574.3821" y="170.7754"/><text fill="#000000" font-family="sans-serif" font-size="13" font-weight="700" lengthAdjust="spacing" textLength="324.2065" x="580.3821" y="187.3438">Step 1 &#8212; Explore the live site, THEN write a plan</text><g class="message" data-entity-1="part6" data-entity-2="part2" data-source-line="26" id="msg2"><polygon fill="#444444" points="240.4937,221.3965,230.4937,225.3965,240.4937,229.3965,236.4937,225.3965" style="stroke:#444444;stroke-width:1;stroke-linejoin:miter;stroke-miterlimit:10;"/><line style="stroke:#444444;stroke-width:1;stroke-dasharray:2,2;" x1="234.4937" x2="1281.1074" y1="225.3965" y2="225.3965"/><text fill="#333333" font-family="sans-serif" font-size="13" lengthAdjust="spacing" textLength="281.0234" x="615.2888" y="220.6543">its own previous plan (memory / head-start)</text></g><g class="message" data-entity-1="part2" data-entity-2="part7" data-source-line="27" id="msg3"><polygon fill="#444444" points="1419.5386,250.707,1429.5386,254.707,1419.5386,258.707,1423.5386,254.707" style="stroke:#444444;stroke-width:1;stroke-linejoin:miter;stroke-miterlimit:10;"/><line style="stroke:#444444;stroke-width:1;" x1="229.4937" x2="1425.5386" y1="254.707" y2="254.707"/><text fill="#333333" font-family="sans-serif" font-size="13" lengthAdjust="spacing" textLength="195.4126" x="732.8098" y="249.9648">open the site &amp; click through it</text></g><g class="message" data-entity-1="part7" data-entity-2="part2" data-source-line="29" id="msg4"><polygon fill="#444444" points="240.4937,280.0176,230.4937,284.0176,240.4937,288.0176,236.4937,284.0176" style="stroke:#444444;stroke-width:1;stroke-linejoin:miter;stroke-miterlimit:10;"/><line style="stroke:#444444;stroke-width:1;stroke-dasharray:2,2;" x1="234.4937" x2="1435.5386" y1="284.0176" y2="284.0176"/><text fill="#333333" font-family="sans-serif" font-size="13" lengthAdjust="spacing" textLength="131.2251" x="767.4036" y="279.2754">pages + screenshots</text></g><g class="message" data-entity-1="part2" data-entity-2="part2" data-source-line="31" id="msg5"><line style="stroke:#444444;stroke-width:1;" x1="229.4937" x2="271.4937" y1="328.6387" y2="328.6387"/><line style="stroke:#444444;stroke-width:1;" x1="271.4937" x2="271.4937" y1="328.6387" y2="341.6387"/><line style="stroke:#444444;stroke-width:1;" x1="230.4937" x2="271.4937" y1="341.6387" y2="341.6387"/><polygon fill="#444444" points="240.4937,337.6387,230.4937,341.6387,240.4937,345.6387,236.4937,341.6387" style="stroke:#444444;stroke-width:1;stroke-linejoin:miter;stroke-miterlimit:10;"/><text fill="#333333" font-family="sans-serif" font-size="13" lengthAdjust="spacing" textLength="130.5015" x="236.4937" y="308.5859">write a plain-English</text><text fill="#333333" font-family="sans-serif" font-size="13" font-weight="700" lengthAdjust="spacing" textLength="61.8706" x="371.1084" y="308.5859">Test Plan</text><text fill="#333333" font-family="sans-serif" font-size="13" lengthAdjust="spacing" textLength="185.2817" x="242.0955" y="323.8965">(the user flows worth testing)</text></g><rect fill="#EEEEEE" height="3" rx="4" ry="4" style="stroke:#EEEEEE;stroke-width:1;" width="1491.2554" x="0" y="370.2939"/><line style="stroke:#000000;stroke-width:1;" x1="0" x2="1491.2554" y1="370.2939" y2="370.2939"/><line style="stroke:#000000;stroke-width:1;" x1="0" x2="1491.2554" y1="373.2939" y2="373.2939"/><rect fill="#EEEEEE" height="23.3105" rx="4" ry="4" style="stroke:#000000;stroke-width:2;" width="301.8472" x="594.7041" y="359.6387"/><text fill="#000000" font-family="sans-serif" font-size="13" font-weight="700" lengthAdjust="spacing" textLength="283.5625" x="600.7041" y="376.207">Step 2 &#8212; Reuse what works, write the rest</text><g class="message" data-entity-1="part2" data-entity-2="part3" data-source-line="34" id="msg6"><polygon fill="#444444" points="427.979,410.2598,437.979,414.2598,427.979,418.2598,431.979,414.2598" style="stroke:#444444;stroke-width:1;stroke-linejoin:miter;stroke-miterlimit:10;"/><line style="stroke:#444444;stroke-width:1;" x1="229.4937" x2="433.979" y1="414.2598" y2="414.2598"/><text fill="#333333" font-family="sans-serif" font-size="13" lengthAdjust="spacing" textLength="148.5415" x="260.4656" y="409.5176">hand over the Test Plan</text></g><g class="message" data-entity-1="part6" data-entity-2="part3" data-source-line="35" id="msg7"><polygon fill="#444444" points="450.979,439.5703,440.979,443.5703,450.979,447.5703,446.979,443.5703" style="stroke:#444444;stroke-width:1;stroke-linejoin:miter;stroke-miterlimit:10;"/><line style="stroke:#444444;stroke-width:1;stroke-dasharray:2,2;" x1="444.979" x2="1281.1074" y1="443.5703" y2="443.5703"/><text fill="#333333" font-family="sans-serif" font-size="13" lengthAdjust="spacing" textLength="252.1543" x="712.1177" y="438.8281">matching test scripts from past runs -&gt;</text><text fill="#333333" font-family="sans-serif" font-size="13" font-weight="700" lengthAdjust="spacing" textLength="41.5835" x="968.3853" y="438.8281">REUSE</text></g><g class="message" data-entity-1="part3" data-entity-2="part3" data-source-line="36" id="msg8"><line style="stroke:#444444;stroke-width:1;" x1="439.979" x2="481.979" y1="472.8809" y2="472.8809"/><line style="stroke:#444444;stroke-width:1;" x1="481.979" x2="481.979" y1="472.8809" y2="485.8809"/><line style="stroke:#444444;stroke-width:1;" x1="440.979" x2="481.979" y1="485.8809" y2="485.8809"/><polygon fill="#444444" points="450.979,481.8809,440.979,485.8809,450.979,489.8809,446.979,485.8809" style="stroke:#444444;stroke-width:1;stroke-linejoin:miter;stroke-miterlimit:10;"/><text fill="#333333" font-family="sans-serif" font-size="13" lengthAdjust="spacing" textLength="31.1987" x="446.979" y="468.1387">write</text><text fill="#333333" font-family="sans-serif" font-size="13" font-weight="700" lengthAdjust="spacing" textLength="77.2954" x="482.291" y="468.1387">new scripts</text><text fill="#333333" font-family="sans-serif" font-size="13" lengthAdjust="spacing" textLength="189.8965" x="563.6997" y="468.1387">for everything not yet covered</text></g><rect fill="#EEEEEE" height="3" rx="4" ry="4" style="stroke:#EEEEEE;stroke-width:1;" width="1491.2554" x="0" y="514.5361"/><line style="stroke:#000000;stroke-width:1;" x1="0" x2="1491.2554" y1="514.5361" y2="514.5361"/><line style="stroke:#000000;stroke-width:1;" x1="0" x2="1491.2554" y1="517.5361" y2="517.5361"/><rect fill="#EEEEEE" height="23.3105" rx="4" ry="4" style="stroke:#000000;stroke-width:2;" width="263.9072" x="613.6741" y="503.8809"/><text fill="#000000" font-family="sans-serif" font-size="13" font-weight="700" lengthAdjust="spacing" textLength="245.6226" x="619.6741" y="520.4492">Step 3 &#8212; Run for real, then self-heal</text><g class="message" data-entity-1="part3" data-entity-2="part7" data-source-line="39" id="msg9"><polygon fill="#444444" points="1419.5386,554.502,1429.5386,558.502,1419.5386,562.502,1423.5386,558.502" style="stroke:#444444;stroke-width:1;stroke-linejoin:miter;stroke-miterlimit:10;"/><line style="stroke:#444444;stroke-width:1;" x1="439.979" x2="1425.5386" y1="558.502" y2="558.502"/><text fill="#333333" font-family="sans-serif" font-size="13" lengthAdjust="spacing" textLength="181.6318" x="844.9429" y="553.7598">run every test in the browser</text></g><g class="message" data-entity-1="part7" data-entity-2="part4" data-source-line="41" id="msg10"><polygon fill="#444444" points="771.5962,583.8125,761.5962,587.8125,771.5962,591.8125,767.5962,587.8125" style="stroke:#444444;stroke-width:1;stroke-linejoin:miter;stroke-miterlimit:10;"/><line style="stroke:#444444;stroke-width:1;stroke-dasharray:2,2;" x1="765.5962" x2="1435.5386" y1="587.8125" y2="587.8125"/><text fill="#333333" font-family="sans-serif" font-size="13" lengthAdjust="spacing" textLength="109.751" x="1043.6919" y="583.0703">pass / fail results</text></g><g class="message" data-entity-1="part6" data-entity-2="part4" data-source-line="43" id="msg11"><polygon fill="#444444" points="771.5962,613.123,761.5962,617.123,771.5962,621.123,767.5962,617.123" style="stroke:#444444;stroke-width:1;stroke-linejoin:miter;stroke-miterlimit:10;"/><line style="stroke:#444444;stroke-width:1;stroke-dasharray:2,2;" x1="765.5962" x2="1281.1074" y1="617.123" y2="617.123"/><text fill="#333333" font-family="sans-serif" font-size="13" lengthAdjust="spacing" textLength="274.479" x="884.1123" y="612.3809">fixes that worked before for similar failures</text></g><g class="message" data-entity-1="part4" data-entity-2="part4" data-source-line="44" id="msg12"><line style="stroke:#444444;stroke-width:1;" x1="760.5962" x2="802.5962" y1="646.4336" y2="646.4336"/><line style="stroke:#444444;stroke-width:1;" x1="802.5962" x2="802.5962" y1="646.4336" y2="659.4336"/><line style="stroke:#444444;stroke-width:1;" x1="761.5962" x2="802.5962" y1="659.4336" y2="659.4336"/><polygon fill="#444444" points="771.5962,655.4336,761.5962,659.4336,771.5962,663.4336,767.5962,659.4336" style="stroke:#444444;stroke-width:1;stroke-linejoin:miter;stroke-miterlimit:10;"/><text fill="#333333" font-family="sans-serif" font-size="13" lengthAdjust="spacing" textLength="238.2783" x="767.5962" y="641.6914">repair what failed &#183; park the unfixable</text></g><rect fill="#EEEEEE" height="3" rx="4" ry="4" style="stroke:#EEEEEE;stroke-width:1;" width="1491.2554" x="0" y="688.0889"/><line style="stroke:#000000;stroke-width:1;" x1="0" x2="1491.2554" y1="688.0889" y2="688.0889"/><line style="stroke:#000000;stroke-width:1;" x1="0" x2="1491.2554" y1="691.0889" y2="691.0889"/><rect fill="#EEEEEE" height="23.3105" rx="4" ry="4" style="stroke:#000000;stroke-width:2;" width="355.1865" x="568.0344" y="677.4336"/><text fill="#000000" font-family="sans-serif" font-size="13" font-weight="700" lengthAdjust="spacing" textLength="336.9019" x="574.0344" y="694.002">Step 4 &#8212; Explain the results, then remember them</text><g class="message" data-entity-1="part4" data-entity-2="part5" data-source-line="47" id="msg13"><polygon fill="#444444" points="1000.8745,728.0547,1010.8745,732.0547,1000.8745,736.0547,1004.8745,732.0547" style="stroke:#444444;stroke-width:1;stroke-linejoin:miter;stroke-miterlimit:10;"/><line style="stroke:#444444;stroke-width:1;" x1="760.5962" x2="1006.8745" y1="732.0547" y2="732.0547"/><text fill="#333333" font-family="sans-serif" font-size="13" lengthAdjust="spacing" textLength="168.0479" x="802.7114" y="727.3125">final results + screenshots</text></g><g class="message" data-entity-1="part5" data-entity-2="part5" data-source-line="48" id="msg14"><line style="stroke:#444444;stroke-width:1;" x1="1012.8745" x2="1054.8745" y1="776.6758" y2="776.6758"/><line style="stroke:#444444;stroke-width:1;" x1="1054.8745" x2="1054.8745" y1="776.6758" y2="789.6758"/><line style="stroke:#444444;stroke-width:1;" x1="1013.8745" x2="1054.8745" y1="789.6758" y2="789.6758"/><polygon fill="#444444" points="1023.8745,785.6758,1013.8745,789.6758,1023.8745,793.6758,1019.8745,789.6758" style="stroke:#444444;stroke-width:1;stroke-linejoin:miter;stroke-miterlimit:10;"/><text fill="#333333" font-family="sans-serif" font-size="13" lengthAdjust="spacing" textLength="151.9312" x="1047.1282" y="756.623">write a human-readable</text><text fill="#333333" font-family="sans-serif" font-size="13" font-weight="700" lengthAdjust="spacing" textLength="44.6812" x="1203.1726" y="756.623">Report</text><text fill="#333333" font-family="sans-serif" font-size="13" lengthAdjust="spacing" textLength="255.2329" x="1019.8745" y="771.9336">(summary &#183; issues &#183; recommended fixes)</text></g><g class="message" data-entity-1="part5" data-entity-2="part1" data-source-line="49" id="msg15"><polygon fill="#444444" points="47.1826,814.9863,37.1826,818.9863,47.1826,822.9863,43.1826,818.9863" style="stroke:#444444;stroke-width:1;stroke-linejoin:miter;stroke-miterlimit:10;"/><line style="stroke:#444444;stroke-width:1;stroke-dasharray:2,2;" x1="41.1826" x2="1011.8745" y1="818.9863" y2="818.9863"/><text fill="#333333" font-family="sans-serif" font-size="13" lengthAdjust="spacing" textLength="93.9907" x="477.5332" y="814.2441">&#128196; Test Report</text></g><g class="message" data-entity-1="part5" data-entity-2="part6" data-source-line="50" id="msg16"><polygon fill="#444444" points="1270.1074,844.2969,1280.1074,848.2969,1270.1074,852.2969,1274.1074,848.2969" style="stroke:#444444;stroke-width:1;stroke-linejoin:miter;stroke-miterlimit:10;"/><line style="stroke:#444444;stroke-width:1;" x1="1012.8745" x2="1276.1074" y1="848.2969" y2="848.2969"/><text fill="#333333" font-family="sans-serif" font-size="13" lengthAdjust="spacing" textLength="227.8682" x="1033.5569" y="843.5547">save this run -&gt; next run is smarter</text></g><path d="M5,865.2969 L5,912.2969 A4,4 0 0 0 9,916.2969 L1464,916.2969 A4,4 0 0 0 1468,912.2969 L1468,871.2969 L1458,861.2969 L9,861.2969 A4,4 0 0 0 5,865.2969" fill="#FFF7E0" style="stroke:#E0C46C;stroke-width:0.5;"/><path d="M1458,861.2969 L1458,869.2969 A2,2 0 0 0 1460,871.2969 L1468,871.2969 L1458,861.2969" fill="#FFF7E0" style="stroke:#E0C46C;stroke-width:0.5;"/><text fill="#000000" font-family="sans-serif" font-size="13" lengthAdjust="spacing" textLength="254.0522" x="462.0635" y="878.8652">Playwright (the real browser) is driven in</text><text fill="#000000" font-family="sans-serif" font-size="13" font-weight="700" lengthAdjust="spacing" textLength="71.4429" x="720.229" y="878.8652">two places</text><text fill="#000000" font-family="sans-serif" font-size="13" lengthAdjust="spacing" textLength="136.6396" x="791.6719" y="878.8652">: when the Discoverer</text><text fill="#000000" font-family="sans-serif" font-size="13" lengthAdjust="spacing" textLength="478.0229" x="462.0635" y="894.1758">explores the site, and when the tests are run before the Evolver heals them.</text><text fill="#000000" font-family="sans-serif" font-size="13" lengthAdjust="spacing" textLength="132.5581" x="462.0635" y="909.4863">The Knowledge DB is</text><text fill="#000000" font-family="sans-serif" font-size="13" font-weight="700" lengthAdjust="spacing" textLength="55.123" x="598.7349" y="909.4863">optional</text><text fill="#000000" font-family="sans-serif" font-size="13" lengthAdjust="spacing" textLength="344.2207" x="657.9712" y="909.4863">&#8212; without it the same four agents still run, just "cold".</text><?plantuml-src RLNDSkD44BxhARfC5IJ2NZPn0akgGbL-x882bbIogLouZAMsDNWqevqPMScD0sy0Tnw3Eu_24_08V3sI7MzOdHBhw-wll_ww5NKqJ1VVqJiESNBNwiZqpwz_qCMARQG7vzTBupewk7JAb_JJXlr6StUOPP_HP38XuzoQFgKbipcZmh2oO_AiIhKmFAQ514sMNhCjpPC4P66jRQEygccXYlNAkzQMLyuuJv_CqxE729KgNQVjYfRA1Dv_m-zRjWN_o26e5LyOlR9KW37xFLHANZXlsTERlTyll7VTKFGaFIzVpfsD0s2QdZt0MnVvyYFSlvgzVebolcG_86Qlhqw-lCeoLKJyExeFx4Ua0iaVMOQWg0lTA8W-kjQXS51wG5mS8VhD_7JszGiO1xGj84gmOy2cy-FvzOUmsSQPJOzAi6bYEmNR3s2tt3WVdxET03QTdSvFiwnKKIrKOABHzzPrXiiLq_Nbp_QWKI5IOvGDzFTV50glcvZ-NEf73eU9_lKbU5tDvlEZR26AAV-4H3T6FNLUhwg8D72CeGLqXnQ7YUY73xBSFEooP28PJRuHOSxew1MDnBiKAnseuqM0XKTqS7_x0rnwVavtaHiwIgQUFJQO1GFAPFI6IR1ZUlVjx2s13AolKZTqVfw1zcHRGwCfrrbgF6-qQqCFEgYvTcZc2whW-4c8aFCmGm32GFUCNCCsrP8os9B2w6AD7s2SLOMauWMzKNXtyv0XObUlWQS3VIw2CjjGkHYoalVHVPK4tYEkxMHcLqQ7Yl8yYGAPRPv3Og7HYcwopj09iwue0eBrsjFfEEbqou1ILwaem7KO3qKaYPUqq6TWS0m6bR8bYM4JO5Tt9w5WQXMBIbPPQkwSilIkfcGYty930EVvxUp-RfRd6SAsmNtrFBVSRKFpd9RO8qRLfvWIMnVfYIFrgrC-zpJjUsfjYX2lZOMenHKnoqabtfD-ZdTp0vS-SKzMzqCS_FdHeKtJq4A05vPA6n6fDVyRsbOFGQS5GTv1OYvfmKlnfd0CkjP6-PIhHQuC8Tj0putIlX-El4SazWshl4uiMulCSdsV-p_PULyDhGpq1XaymyYBVdfragAlTf9eMhLhvuKZ0TZ2jXwisbhPoVO38CDCLoKvCBHrBRiFjZg4bjETy5oukiRd0MtqDoEbHTwqv6Vqxv-__zPRgayrL8MKPnJKXlkrbudXLykFoKaeG075v7EGmHUWLdWNGaRqV7Vee9TYx_H8NEbn6AmCFSzZvsIj2eRTq6GrhFFpVKP2xczAs2twc6GTTc2nK225oGgnOSZoOhZBSZnCYgvV8TqxlDa_ia8fprqJjSCau7gPPQTZvLeuC_PLLIs-QJqf-MgZzwYDaNfZ-gM5TAF2cNBqAeFEiYQS_GS0?></g></svg>